<?xml version="1.0" standalone="no"?>
<!DOCTYPE svg PUBLIC "-//W3C//DTD SVG 20010904//EN"
 "http://www.w3.org/TR/2001/REC-SVG-20010904/DTD/svg10.dtd">
<svg version="1.0" xmlns="http://www.w3.org/2000/svg"
 width="500.000000pt" height="500.000000pt" viewBox="0 0 500.000000 500.000000"
 preserveAspectRatio="xMidYMid meet">
<metadata>
Created by potrace 1.11, written by Peter Selinger 2001-2013
</metadata>
<g transform="translate(0.000000,500.000000) scale(0.100000,-0.100000)"
fill="#000000" stroke="none">
<path d="M2471 4804 c-6 -22 -9 -41 -8 -44 1 -3 -6 -18 -16 -33 -9 -15 -15
-27 -11 -27 4 0 2 -6 -3 -12 -5 -7 -9 -20 -8 -28 0 -8 -2 -17 -6 -20 -4 -3 -9
-18 -12 -35 -6 -32 -29 -97 -37 -105 -3 -3 -5 -9 -5 -15 -1 -17 -35 -129 -46
-148 -5 -10 -7 -22 -4 -27 4 -6 2 -10 -3 -10 -5 0 -9 -7 -10 -15 -1 -8 -3 -22
-4 -30 -1 -8 -4 -15 -8 -15 -3 0 -6 -9 -7 -20 -1 -11 -9 -34 -17 -50 -9 -19
-10 -28 -3 -23 9 5 9 3 1 -8 -6 -8 -17 -32 -23 -54 -7 -22 -14 -46 -16 -53 -3
-7 -5 -16 -6 -20 -1 -6 -11 -33 -35 -97 -4 -11 -8 -25 -10 -32 -3 -15 -33
-113 -41 -133 -4 -8 -7 -17 -7 -20 -1 -3 -4 -10 -8 -16 -4 -5 3 -22 15 -37 44
-52 65 -82 65 -91 0 -5 7 -13 16 -18 9 -5 16 -14 16 -19 0 -10 24 -39 33 -39
5 0 21 71 19 83 -1 4 2 7 6 7 5 0 9 7 10 15 1 8 3 22 4 30 1 8 5 15 10 15 5 0
6 5 3 10 -4 6 -3 16 3 23 5 7 15 35 22 62 7 28 16 55 20 60 4 6 11 24 15 40 8
30 12 44 18 68 2 6 7 19 10 27 6 16 37 112 63 193 8 26 19 47 25 47 6 0 8 -9
4 -20 -3 -11 -2 -20 3 -20 5 0 13 -15 17 -32 10 -43 11 -46 29 -95 8 -24 13
-43 10 -43 -2 0 2 -13 11 -30 9 -16 13 -30 9 -30 -4 0 -1 -7 6 -15 7 -9 14
-23 15 -33 1 -9 4 -25 8 -34 15 -38 20 -54 22 -68 2 -8 10 -34 18 -57 9 -24
14 -43 10 -43 -3 0 -1 -6 4 -12 9 -12 31 -70 37 -101 2 -7 6 -21 10 -32 5 -11
12 -31 16 -45 4 -14 11 -34 16 -45 12 -32 15 -49 15 -67 0 -10 4 -18 10 -18 5
0 9 -11 9 -24 0 -14 5 -28 10 -31 6 -4 8 -10 5 -15 -3 -5 -1 -11 4 -15 5 -3 8
-14 6 -25 -2 -11 0 -20 6 -20 5 0 9 -8 9 -18 0 -10 3 -22 7 -26 7 -6 11 -24
15 -58 1 -10 6 -18 10 -18 4 0 8 -11 8 -25 0 -14 5 -25 11 -25 6 0 9 -6 6 -12
-2 -7 6 -41 19 -75 17 -45 20 -63 11 -66 -7 -3 -2 -6 11 -6 12 -1 22 3 22 7 0
5 8 18 18 30 45 53 50 61 45 65 -2 3 5 10 16 17 12 6 21 17 21 26 0 8 6 17 14
20 13 5 12 13 0 57 -8 29 -18 59 -21 67 -8 20 -10 27 -25 80 -7 25 -15 47 -18
50 -3 3 -7 12 -9 20 -2 8 -4 20 -6 25 -1 6 -5 18 -9 27 -4 9 -9 22 -10 30 -8
39 -20 74 -29 86 -5 6 -6 12 -1 12 4 0 3 5 -3 11 -6 6 -9 18 -6 25 3 7 -2 21
-11 30 -9 8 -14 20 -10 25 3 6 1 15 -4 22 -6 7 -11 17 -11 22 -1 11 -19 70
-28 95 -10 25 -15 44 -16 63 -1 9 -5 17 -9 17 -4 0 -8 9 -8 19 0 11 -5 23 -11
26 -6 4 -8 13 -5 21 3 7 1 16 -5 19 -5 4 -7 10 -4 15 3 5 1 11 -5 15 -5 3 -10
17 -10 31 0 13 -5 24 -11 24 -6 0 -9 6 -6 13 2 6 -4 33 -14 60 -10 26 -16 47
-13 47 4 0 1 6 -5 13 -6 8 -13 24 -15 38 -3 13 -5 26 -6 29 -2 3 -2 8 -1 13 0
4 -3 7 -8 7 -5 0 -8 8 -7 18 2 9 -2 26 -9 37 -6 11 -24 63 -40 115 -15 52 -31
104 -35 115 -17 43 -23 61 -27 80 -6 28 -9 38 -16 55 -4 8 -21 58 -38 110 -17
52 -33 97 -34 99 -2 1 -8 -14 -14 -35z"/>
<path d="M2473 3704 c3 -4 0 -22 -8 -40 -8 -19 -11 -34 -8 -34 3 0 -2 -11 -11
-25 -9 -14 -14 -25 -12 -25 3 0 -2 -19 -11 -42 -8 -24 -16 -50 -18 -58 -2 -14
-6 -26 -22 -67 -3 -10 -7 -20 -7 -23 -1 -3 -5 -11 -9 -17 -5 -7 -6 -13 -3 -13
3 0 -2 -19 -10 -42 -14 -38 -20 -59 -27 -93 -2 -5 -5 -14 -9 -20 -8 -14 -31
-100 -27 -101 2 0 -2 -8 -10 -17 -7 -10 -10 -17 -6 -17 4 0 3 -6 -2 -12 -8
-11 -21 -47 -27 -78 -5 -20 -60 -188 -67 -202 -5 -10 -9 -24 -9 -32 0 -8 -7
-16 -15 -20 -8 -3 -15 0 -15 7 0 7 -3 8 -8 2 -7 -10 -242 -15 -242 -5 0 8 -55
4 -68 -4 -7 -4 -12 -4 -12 1 0 10 -92 9 -108 -1 -7 -4 -12 -4 -12 1 0 10 -92
9 -108 -1 -7 -4 -12 -4 -12 1 0 10 -92 9 -108 -1 -7 -4 -12 -4 -12 1 0 4 -49
8 -110 8 -67 0 -110 -4 -110 -10 0 -5 -5 -3 -10 5 -7 11 -10 11 -10 2 0 -7 -5
-10 -10 -7 -6 4 -25 8 -43 11 -23 2 -28 1 -17 -6 13 -9 13 -10 0 -11 -13 0
-13 -1 0 -7 9 -4 50 -33 93 -64 42 -32 81 -58 87 -58 5 0 10 -4 10 -9 0 -5 16
-18 35 -30 38 -22 45 -27 89 -65 15 -14 37 -28 47 -31 11 -4 19 -11 19 -16 0
-5 6 -9 14 -9 8 0 16 -4 18 -8 2 -5 26 -23 53 -42 28 -18 52 -36 55 -40 3 -3
21 -17 40 -30 19 -13 38 -29 42 -35 4 -5 8 -6 8 -2 0 5 7 2 15 -6 8 -8 57 -45
109 -83 62 -44 92 -72 87 -78 -5 -6 -10 -14 -10 -18 -6 -42 -15 -68 -23 -68
-5 0 -6 -5 -3 -10 4 -6 1 -17 -5 -25 -7 -8 -10 -15 -7 -15 3 0 -8 -37 -24 -82
-17 -46 -31 -90 -31 -98 0 -8 -5 -21 -11 -27 -5 -7 -7 -13 -4 -13 3 0 -5 -28
-19 -62 -13 -34 -24 -67 -24 -74 0 -7 -5 -25 -12 -41 -6 -15 -10 -34 -9 -40 1
-7 -4 -13 -10 -13 -7 0 -10 -3 -6 -6 5 -5 -10 -59 -30 -104 -3 -8 -6 -18 -5
-21 1 -4 -10 -36 -23 -73 -13 -36 -22 -66 -19 -66 2 0 -2 -13 -11 -30 -8 -16
-15 -38 -15 -49 0 -10 -6 -21 -12 -24 -7 -2 -10 -8 -6 -12 7 -7 165 103 313
218 41 31 75 54 75 50 0 -5 5 0 11 10 5 9 16 17 24 17 7 0 15 3 17 8 3 7 70
59 118 92 57 40 155 115 158 122 2 4 13 8 23 8 11 0 18 3 15 8 -2 4 17 21 44
39 l48 32 53 -40 c30 -22 64 -48 76 -58 12 -10 25 -16 28 -13 3 3 5 1 5 -4 0
-5 18 -20 40 -34 22 -14 40 -28 40 -32 0 -5 4 -8 10 -8 9 0 35 -19 65 -47 8
-7 16 -13 20 -13 6 0 23 -13 56 -42 10 -10 19 -16 19 -13 0 5 12 -4 44 -32 8
-7 16 -9 20 -6 3 4 6 -1 6 -10 0 -10 7 -17 15 -17 8 0 15 -4 15 -10 0 -5 6
-10 13 -10 7 0 23 -10 37 -23 14 -13 33 -26 43 -30 9 -3 17 -11 17 -17 0 -5 5
-10 11 -10 6 0 24 -10 39 -22 15 -13 37 -30 50 -38 12 -8 29 -21 36 -28 8 -7
14 -10 14 -5 0 4 5 0 11 -10 5 -9 16 -17 24 -17 7 0 15 -6 18 -12 2 -7 7 -11
10 -8 4 4 -38 145 -44 145 0 0 -2 7 -4 15 -1 8 -31 98 -65 200 -34 102 -63
190 -64 197 -1 7 -5 16 -9 19 -4 4 -7 17 -7 29 0 12 -3 25 -7 29 -4 3 -8 12
-9 19 -1 7 -18 58 -37 114 -20 56 -33 104 -30 107 4 3 1 6 -6 6 -7 0 -10 4 -7
8 3 5 -1 19 -8 33 -7 13 -11 30 -8 37 2 6 -1 12 -7 12 -6 0 -8 7 -5 15 4 8 10
15 15 15 5 0 17 7 26 15 54 45 223 165 232 165 6 0 11 4 11 9 0 4 19 21 43 37
51 35 54 37 95 70 17 14 32 23 32 21 0 -5 34 21 70 55 10 9 20 14 23 12 2 -2
10 2 17 11 7 8 19 15 27 15 8 0 11 5 8 10 -3 6 -1 10 4 10 6 0 19 6 28 14 60
48 153 114 153 108 0 -4 5 1 11 11 5 9 17 17 24 17 20 0 19 20 0 21 -75 3
-194 1 -204 -5 -6 -4 -11 -4 -11 1 0 10 -92 9 -108 -1 -7 -4 -12 -4 -12 1 0
10 -92 9 -108 -1 -7 -4 -12 -4 -12 1 0 4 -63 8 -140 8 -77 0 -140 -2 -140 -5
0 -3 -63 -5 -140 -5 l-140 0 -10 30 c-5 17 -10 33 -10 37 -1 4 -7 23 -16 43
-8 19 -11 35 -7 35 4 0 2 5 -5 12 -7 7 -12 20 -12 30 0 10 -4 18 -9 18 -5 0
-8 8 -6 18 1 9 -1 22 -5 27 -5 6 -9 13 -9 17 -1 4 -3 13 -6 20 -23 68 -60 185
-61 193 0 6 -6 22 -12 36 -6 15 -16 46 -22 70 -7 24 -17 50 -22 57 -6 7 -8 15
-5 18 3 3 -3 26 -13 50 -11 24 -19 45 -18 47 1 2 -20 73 -29 97 -7 17 -6 12
-23 70 -7 25 -13 48 -12 53 1 4 -5 7 -15 7 -9 0 -14 -3 -10 -6z"/>
<path d="M75 3074 c-17 -13 -17 -14 -1 -14 9 0 28 -11 41 -24 13 -13 26 -21
29 -19 3 3 8 -2 12 -11 3 -9 10 -13 15 -10 5 3 9 0 9 -5 0 -6 4 -11 9 -11 6 0
22 -11 37 -25 15 -14 33 -25 40 -25 8 0 14 -4 14 -10 0 -5 7 -10 15 -10 8 0
15 -7 15 -16 0 -8 5 -12 10 -9 6 3 10 1 10 -4 0 -6 5 -11 10 -11 6 0 34 -18
63 -40 29 -22 57 -44 62 -48 6 -4 26 -18 45 -32 19 -13 37 -27 40 -30 3 -3 28
-21 55 -40 28 -19 55 -38 60 -43 6 -4 57 -42 115 -83 57 -41 107 -80 111 -85
3 -6 10 -11 15 -11 9 -1 75 -47 84 -60 11 -15 59 -27 66 -17 3 5 13 9 22 7 10
-1 27 3 40 10 12 7 22 9 22 5 0 -4 5 -2 11 4 6 6 18 9 25 6 8 -3 14 0 14 6 0
6 10 11 23 11 41 0 49 14 22 38 -14 12 -30 22 -35 22 -6 0 -10 3 -10 8 0 4
-18 18 -40 32 -22 14 -40 28 -40 32 0 5 -5 8 -10 8 -6 0 -32 17 -59 38 -27 20
-59 45 -72 54 -115 81 -265 193 -271 202 -4 6 -3 13 2 16 13 8 314 5 328 -4 7
-4 12 -2 12 5 0 7 5 8 13 3 14 -11 37 -11 54 -1 6 4 15 3 18 -3 4 -7 12 -7 18
-2 14 10 27 10 44 -1 8 -5 13 -3 13 4 0 7 5 8 13 3 11 -9 31 -10 50 -4 19 6
33 5 45 -3 8 -6 12 -5 12 3 0 8 4 9 13 4 11 -9 31 -10 50 -4 19 6 33 5 45 -3
8 -6 12 -5 12 3 0 8 4 9 13 4 11 -9 31 -10 50 -4 19 6 33 5 45 -3 8 -6 12 -5
12 3 0 9 4 9 13 2 8 -7 18 -7 27 -2 9 5 19 5 27 -2 9 -7 13 -7 13 2 0 8 4 9
13 4 11 -9 31 -10 50 -4 19 6 33 5 45 -3 8 -6 12 -5 12 3 0 8 4 9 13 4 11 -9
31 -10 50 -4 19 6 33 5 45 -3 8 -6 12 -5 12 2 0 7 5 9 13 4 16 -10 39 -10 55
1 7 5 17 5 25 -1 6 -5 18 -8 25 -7 6 1 24 2 39 3 l28 1 -28 26 c-15 14 -25 29
-22 35 4 5 1 9 -5 9 -6 0 -14 8 -17 17 -7 18 -33 51 -69 89 -12 13 -19 26 -15
30 3 4 -1 3 -9 -2 -21 -13 -293 -12 -302 1 -5 6 -8 7 -8 0 0 -12 -528 -14
-546 -3 -6 4 -14 4 -18 1 -10 -10 -106 -10 -106 0 0 5 -6 5 -12 1 -18 -11 -48
-12 -48 -2 0 5 -6 6 -12 2 -18 -11 -48 -12 -48 -2 0 5 -6 6 -12 2 -18 -11 -48
-12 -48 -2 0 5 -6 6 -12 2 -18 -11 -48 -12 -48 -2 0 5 -6 6 -12 2 -19 -12 -48
-12 -48 -1 0 6 -5 6 -12 1 -16 -11 -68 -11 -85 -1 -7 5 -13 4 -13 -1 0 -10
-30 -9 -48 2 -6 4 -12 3 -12 -2 0 -10 -30 -9 -48 2 -6 4 -12 3 -12 -2 0 -10
-30 -9 -48 2 -6 4 -12 3 -12 -2 0 -10 -30 -9 -48 2 -6 4 -12 3 -12 -2 0 -10
-30 -9 -48 2 -6 4 -12 3 -12 -2 0 -10 -30 -9 -48 2 -6 4 -12 3 -12 -2 0 -10
-30 -10 -45 0 -6 3 -19 0 -30 -8z"/>
<path d="M3986 3083 c-4 -4 -68 -8 -143 -8 -133 -1 -136 -1 -152 -25 -9 -14
-23 -32 -31 -41 -8 -8 -16 -22 -18 -30 -2 -8 -10 -18 -18 -22 -8 -4 -14 -14
-14 -20 0 -7 -9 -19 -19 -26 -11 -8 -17 -20 -14 -28 4 -10 9 -11 19 -2 10 8
14 8 14 0 0 -7 8 -8 24 -1 15 5 27 5 35 -3 8 -8 11 -8 11 2 0 9 4 10 13 5 11
-9 31 -10 50 -4 19 6 33 5 45 -3 8 -6 12 -5 12 2 0 7 5 9 12 4 18 -10 52 -10
60 1 4 6 12 6 20 -1 7 -6 22 -9 33 -6 25 5 347 11 357 6 4 -2 5 -10 2 -18 -4
-8 -9 -13 -14 -10 -4 2 -16 -3 -26 -13 -36 -33 -144 -112 -153 -112 -5 0 -11
-3 -13 -7 -5 -12 -77 -64 -83 -61 -2 2 -12 -7 -20 -20 -9 -12 -21 -20 -26 -17
-5 4 -9 2 -9 -4 0 -5 -17 -20 -37 -32 -21 -13 -40 -26 -43 -29 -3 -3 -21 -17
-40 -30 -19 -14 -44 -32 -54 -42 -11 -10 -26 -18 -33 -18 -7 0 -17 -9 -23 -20
-6 -11 -15 -18 -20 -15 -4 3 -10 2 -12 -3 -1 -4 -25 -23 -53 -42 -27 -19 -58
-43 -69 -52 -11 -10 -27 -20 -37 -23 -9 -3 -20 -12 -23 -20 -3 -8 -12 -15 -20
-15 -8 0 -16 -4 -18 -8 -1 -4 -34 -30 -73 -57 -38 -27 -72 -52 -75 -56 -3 -3
-34 -25 -69 -49 -62 -42 -63 -43 -40 -56 13 -7 27 -10 31 -8 3 2 9 0 13 -6 3
-5 15 -10 26 -10 10 0 19 -4 19 -9 0 -5 8 -8 17 -7 9 2 28 -3 42 -11 38 -19
55 -16 108 17 26 16 43 30 37 30 -10 0 32 26 58 36 9 3 19 12 22 20 3 8 12 14
20 14 8 0 16 4 18 8 3 9 115 93 123 92 3 0 14 8 24 18 30 27 44 37 89 67 23
15 42 32 42 37 0 5 4 7 9 4 5 -4 11 -3 13 2 5 12 142 107 151 104 4 -1 7 2 7
8 0 5 27 27 59 49 32 22 66 47 74 56 9 8 18 15 21 15 3 0 39 25 80 56 41 30
77 55 81 55 3 -1 16 9 29 22 12 12 46 38 74 56 29 18 52 37 52 43 0 5 5 6 10
3 6 -3 10 -2 10 2 0 5 20 22 45 37 25 16 45 33 45 37 0 5 6 9 13 9 7 0 27 13
45 29 17 17 32 28 32 25 0 -3 20 11 44 30 23 20 46 36 50 36 4 0 16 9 28 20
12 11 29 20 37 20 11 0 10 3 -4 14 -11 8 -23 12 -27 10 -17 -11 -48 -12 -48
-3 0 6 -6 7 -12 3 -18 -11 -48 -12 -48 -2 0 5 -6 6 -12 2 -18 -11 -48 -12 -48
-2 0 5 -6 6 -12 2 -18 -11 -48 -12 -48 -2 0 5 -6 6 -12 2 -18 -11 -48 -12 -48
-2 0 5 -6 6 -12 2 -18 -11 -48 -12 -48 -2 0 5 -6 6 -12 2 -19 -12 -48 -12 -48
-1 0 6 -5 6 -12 1 -16 -11 -68 -11 -85 -1 -7 5 -13 4 -13 -1 0 -10 -30 -9 -48
2 -6 4 -12 3 -12 -2 0 -10 -30 -9 -48 2 -6 4 -12 3 -12 -2 0 -10 -30 -9 -48 2
-6 4 -12 3 -12 -2 0 -10 -30 -9 -48 2 -6 4 -12 3 -12 -2 0 -10 -30 -9 -48 2
-6 4 -12 3 -12 -2 0 -10 -30 -10 -46 1 -6 3 -14 3 -18 0z"/>
<path d="M1767 2049 c-9 -5 -22 -7 -27 -4 -6 3 -10 2 -10 -3 0 -5 -12 -12 -27
-15 -54 -10 -75 -16 -110 -34 -31 -16 -39 -28 -63 -100 -15 -46 -26 -83 -23
-83 3 0 0 -7 -7 -15 -7 -8 -9 -15 -5 -15 4 0 3 -6 -2 -12 -9 -11 -25 -62 -25
-78 0 -3 -3 -9 -7 -15 -5 -5 -12 -23 -16 -40 -10 -36 -8 -29 -25 -85 -7 -25
-17 -49 -21 -55 -4 -5 -10 -27 -14 -47 -4 -21 -11 -38 -15 -38 -4 0 -6 -10 -6
-22 1 -13 -5 -31 -13 -42 -9 -10 -15 -20 -13 -22 1 -2 2 -5 1 -6 -1 -6 -9 -39
-21 -88 -1 -8 -6 -18 -11 -21 -7 -5 -18 -41 -19 -66 -1 -7 -5 -13 -10 -13 -5
0 -6 -5 -3 -10 4 -6 1 -18 -7 -27 -7 -9 -12 -18 -10 -20 1 -1 2 -4 1 -5 0 -2
-3 -14 -5 -28 -2 -13 -8 -27 -12 -30 -4 -3 -7 -12 -7 -20 1 -8 -3 -20 -7 -27
-5 -6 -11 -24 -14 -39 -3 -16 -10 -34 -16 -41 -6 -7 -8 -13 -4 -13 3 0 0 -17
-8 -37 -16 -43 -23 -65 -25 -76 0 -4 -7 -23 -15 -42 -9 -20 -15 -38 -16 -40 0
-10 -5 -26 -13 -45 -3 -8 -18 -55 -33 -105 -15 -49 -30 -94 -33 -100 -3 -5 -7
-16 -8 -22 -6 -28 -10 -40 -22 -78 -8 -22 -16 -44 -19 -50 -3 -5 -7 -21 -8
-35 -3 -23 -2 -23 10 -8 7 10 17 18 21 18 4 0 23 14 42 30 19 17 38 28 43 25
5 -3 11 4 15 15 3 11 9 19 13 17 4 -1 50 30 102 68 52 39 124 91 160 117 36
25 73 53 83 62 9 9 22 16 27 16 6 0 10 5 10 10 0 6 5 10 11 10 7 0 20 10 30
22 11 11 19 17 19 12 0 -5 4 -4 8 1 4 6 32 28 62 50 30 22 57 42 60 45 3 3 25
19 50 35 25 17 50 35 57 40 28 23 40 32 73 55 66 46 65 44 66 171 0 115 0 117
-20 105 -12 -6 -23 -14 -26 -17 -3 -3 -24 -18 -47 -33 -24 -14 -43 -31 -43
-38 0 -6 -3 -9 -6 -5 -4 3 -12 1 -20 -6 -21 -19 -36 -30 -76 -57 -21 -14 -38
-28 -38 -32 0 -5 -7 -8 -15 -8 -8 0 -15 -5 -15 -12 0 -6 -3 -9 -6 -5 -3 3 -13
-2 -23 -11 -9 -10 -28 -25 -41 -34 -51 -36 -136 -98 -155 -113 -38 -30 -59
-18 -42 25 10 27 55 155 56 162 2 10 10 34 18 56 3 9 5 23 4 30 -1 6 3 12 9
12 6 0 10 6 9 13 -1 6 0 19 3 27 28 75 50 144 51 160 1 11 4 20 7 20 3 0 14
32 25 70 11 39 22 70 27 70 4 0 5 9 3 20 -2 11 0 20 6 20 5 0 8 3 7 8 -1 4 4
25 10 47 6 22 12 45 13 50 0 6 4 15 8 20 7 9 22 60 23 75 0 3 5 14 11 25 6 11
12 25 13 30 0 6 2 13 4 18 1 4 4 12 5 17 1 6 4 12 5 15 1 3 3 8 4 13 1 4 8 25
15 47 20 62 20 65 21 70 0 3 6 20 14 39 8 19 12 37 8 40 -3 3 0 6 6 6 6 0 9 7
6 15 -4 8 -2 15 3 15 5 0 9 9 10 20 1 11 1 20 0 20 -1 0 -10 -5 -20 -11z"/>
<path d="M2479 1532 c3 -15 5 -38 4 -52 -7 -70 -7 -120 -1 -120 3 0 4 -8 1
-19 -3 -14 11 -31 59 -67 34 -27 65 -52 66 -56 2 -5 7 -6 11 -3 5 2 19 -7 31
-20 13 -14 28 -25 33 -25 5 0 18 -9 28 -21 9 -11 20 -19 22 -17 3 2 16 -6 29
-17 13 -11 55 -42 93 -69 39 -28 74 -56 78 -63 4 -7 15 -13 22 -13 8 0 15 -4
15 -10 0 -5 7 -10 15 -10 8 0 15 -3 15 -8 0 -4 18 -18 40 -32 22 -14 40 -28
40 -32 0 -5 5 -8 10 -8 6 0 16 -5 23 -10 28 -24 57 -46 77 -60 25 -17 89 -65
107 -80 7 -6 28 -20 48 -31 19 -12 35 -25 35 -30 0 -5 5 -9 11 -9 12 0 92 -59
97 -72 2 -5 8 -8 14 -8 8 0 54 -33 123 -88 6 -4 32 -23 59 -41 27 -19 57 -42
68 -53 10 -10 22 -18 26 -18 5 0 17 -8 28 -17 10 -10 36 -29 56 -43 21 -14 38
-28 38 -32 0 -5 7 -8 15 -8 8 0 15 -4 15 -8 0 -4 13 -15 29 -25 l29 -17 -10
32 c-6 18 -14 42 -18 53 -5 11 -13 34 -19 51 -7 17 -13 40 -14 52 -1 12 -5 22
-9 22 -4 0 -8 6 -8 13 0 7 -11 46 -25 87 -14 41 -28 86 -31 99 -3 13 -10 33
-15 43 -6 11 -12 27 -14 36 -2 9 -25 82 -51 162 -26 80 -48 148 -49 152 0 3
-3 10 -7 14 -5 4 -8 18 -8 31 0 13 -4 23 -8 23 -5 0 -9 6 -9 13 0 16 -71 239
-81 252 -8 11 -25 16 -59 19 -13 0 -23 4 -23 9 0 4 -9 7 -20 7 -11 0 -20 5
-20 11 0 6 -7 9 -15 5 -8 -3 -20 1 -27 8 -7 7 -19 11 -27 8 -7 -2 -17 2 -22 9
-17 26 -10 -24 11 -80 11 -30 18 -57 15 -59 -3 -3 1 -12 7 -20 7 -8 13 -20 15
-28 2 -8 5 -20 7 -26 2 -7 7 -28 11 -45 4 -18 12 -33 18 -33 6 0 8 -3 5 -6 -5
-5 10 -63 29 -114 4 -8 7 -18 8 -22 2 -5 4 -10 5 -13 1 -3 4 -9 5 -15 1 -5 3
-11 5 -12 1 -2 3 -11 5 -21 2 -10 7 -26 11 -35 4 -9 9 -26 11 -36 2 -11 8 -25
14 -33 6 -7 9 -13 5 -13 -3 0 -1 -11 4 -25 8 -21 7 -25 -8 -25 -10 0 -28 9
-40 20 -12 11 -26 20 -32 20 -5 0 -10 5 -10 10 0 6 -5 10 -11 10 -8 0 -80 50
-99 70 -3 3 -22 16 -42 30 -21 14 -38 28 -38 33 0 4 -4 7 -10 7 -11 0 -101 67
-111 82 -3 5 -10 10 -15 10 -5 0 -20 8 -34 19 -14 11 -54 41 -90 67 -36 26
-66 50 -68 54 -2 5 -10 8 -18 8 -8 0 -14 4 -14 8 0 4 -13 16 -30 25 -16 10
-35 23 -42 30 -7 7 -36 28 -63 47 -28 19 -51 38 -53 42 -2 4 -8 8 -13 8 -6 0
-15 5 -22 10 -29 25 -57 46 -78 60 -12 8 -31 23 -41 33 -10 9 -22 17 -28 17
-5 0 -20 11 -34 25 -14 14 -36 29 -50 35 -23 8 -24 7 -17 -18z"/>
</g>
</svg>
